<svg xmlns="http://www.w3.org/2000/svg" viewBox="0 0 32 32">
  <!-- Beyond Utility Water Ventures — Favicon (matches logo.svg) -->
  <rect width="32" height="32" rx="6" fill="#080E1A"/>
  <!-- Drop silhouette -->
  <path d="M16 3C16 3 23 12 23 19C23 22.9 20 26 16 26C12 26 9 22.9 9 19C9 12 16 3 16 3Z" fill="#4B7BF5"/>
  <!-- Stylized B — vertical stem + two bumps -->
  <path d="M14 14V25" stroke="#fff" stroke-width="1.8" stroke-linecap="round"/>
  <path d="M14 14.2C14 14.2 17.5 13.8 17.5 16.2C17.5 18.5 14 18.3 14 18.3" stroke="#fff" stroke-width="1.8" stroke-linecap="round" stroke-linejoin="round" fill="none"/>
  <path d="M14 18.3C14 18.3 18 17.9 18 20.6C18 23.2 14 23 14 23" stroke="#fff" stroke-width="1.8" stroke-linecap="round" stroke-linejoin="round" fill="none"/>
</svg>
